<svg width="253" height="44" fill="none" xmlns="http://www.w3.org/2000/svg"><rect width="44" height="44" rx="12" fill="#C7D9F7"/><path d="M10.256 30V13.2h3.12v14.16h8.784V30H10.256zm14.367 0V13.2h3.12v14.16h8.784V30H24.623zm37.897.5V13.7h2.4v14.712h9.096V30.5H62.52zm19.102.144c-1.088 0-2.048-.2-2.88-.6a4.399 4.399 0 01-1.92-1.824c-.448-.832-.672-1.872-.672-3.12v-7.32h2.304v7.056c0 1.248.296 2.184.888 2.808.608.624 1.456.936 2.544.936.8 0 1.496-.16 2.088-.48a3.398 3.398 0 001.368-1.44c.32-.64.48-1.408.48-2.304V17.78h2.304V30.5h-2.184v-3.432l.36.912a4.45 4.45 0 01-1.872 1.968c-.832.464-1.768.696-2.808.696zm9.042-.144l5.472-7.104-.024 1.176-5.208-6.792h2.568l3.984 5.232h-.984l3.984-5.232h2.52l-5.28 6.84.024-1.224 5.52 7.104h-2.616l-4.2-5.568.936.144-4.128 5.424h-2.568zm20.332.144c-1.36 0-2.56-.28-3.6-.84a6.159 6.159 0 01-2.4-2.304c-.56-.976-.84-2.096-.84-3.36 0-1.264.272-2.384.816-3.36a6 6 0 012.28-2.28c.976-.56 2.072-.84 3.288-.84 1.232 0 2.32.272 3.264.816a5.676 5.676 0 012.208 2.304c.544.976.816 2.12.816 3.432 0 .096-.008.208-.024.336 0 .128-.008.248-.024.36h-10.824v-1.656h9.624l-.936.576c.016-.816-.152-1.544-.504-2.184a3.743 3.743 0 00-1.464-1.488c-.608-.368-1.32-.552-2.136-.552-.8 0-1.512.184-2.136.552a3.705 3.705 0 00-1.464 1.512c-.352.64-.528 1.376-.528 2.208v.384c0 .848.192 1.608.576 2.28.4.656.952 1.168 1.656 1.536.704.368 1.512.552 2.424.552.752 0 1.432-.128 2.04-.384a4.47 4.47 0 001.632-1.152l1.272 1.488a5.554 5.554 0 01-2.16 1.536c-.848.352-1.8.528-2.856.528zM135.94 17.66c1.024 0 1.928.2 2.712.6.784.4 1.392 1.008 1.824 1.824.448.816.672 1.848.672 3.096v7.32h-2.304v-7.056c0-1.232-.288-2.16-.864-2.784-.576-.624-1.384-.936-2.424-.936-.768 0-1.44.16-2.016.48a3.29 3.29 0 00-1.344 1.416c-.304.624-.456 1.4-.456 2.328V30.5h-2.304v-7.056c0-1.232-.288-2.16-.864-2.784-.56-.624-1.368-.936-2.424-.936-.752 0-1.416.16-1.992.48a3.29 3.29 0 00-1.344 1.416c-.32.624-.48 1.4-.48 2.328V30.5h-2.304V17.78h2.208v3.384l-.36-.864a4.338 4.338 0 011.848-1.944c.832-.464 1.8-.696 2.904-.696 1.216 0 2.264.304 3.144.912.88.592 1.456 1.496 1.728 2.712l-.936-.384c.384-.976 1.056-1.76 2.016-2.352.96-.592 2.08-.888 3.36-.888zm14.895 12.984c-1.28 0-2.416-.28-3.408-.84a6.253 6.253 0 01-2.352-2.304c-.576-.992-.864-2.112-.864-3.36 0-1.264.288-2.384.864-3.36a6.076 6.076 0 012.352-2.28c.992-.56 2.128-.84 3.408-.84 1.264 0 2.392.28 3.384.84a5.867 5.867 0 012.352 2.28c.576.96.864 2.08.864 3.36 0 1.264-.288 2.384-.864 3.36a6.031 6.031 0 01-2.352 2.304c-.992.56-2.12.84-3.384.84zm0-2.016c.816 0 1.544-.184 2.184-.552a3.896 3.896 0 001.536-1.56c.368-.688.552-1.48.552-2.376 0-.912-.184-1.696-.552-2.352a3.896 3.896 0 00-1.536-1.56c-.64-.368-1.368-.552-2.184-.552-.816 0-1.544.184-2.184.552a4.111 4.111 0 00-1.536 1.56c-.384.656-.576 1.44-.576 2.352 0 .896.192 1.688.576 2.376a4.111 4.111 0 001.536 1.56c.64.368 1.368.552 2.184.552z" fill="#5C4AD4"/><path d="M160.958 30.5V13.7h2.4v14.712h9.096V30.5h-11.496zm13.914 0V17.78h2.304V30.5h-2.304zm1.152-15.168c-.448 0-.824-.144-1.128-.432a1.436 1.436 0 01-.432-1.056c0-.432.144-.792.432-1.08.304-.288.68-.432 1.128-.432.448 0 .816.144 1.104.432.304.272.456.616.456 1.032 0 .432-.144.8-.432 1.104-.288.288-.664.432-1.128.432zm21.463 2.328c1.024 0 1.928.2 2.712.6.784.4 1.392 1.008 1.824 1.824.448.816.672 1.848.672 3.096v7.32h-2.304v-7.056c0-1.232-.288-2.16-.864-2.784-.576-.624-1.384-.936-2.424-.936-.768 0-1.44.16-2.016.48a3.29 3.29 0 00-1.344 1.416c-.304.624-.456 1.4-.456 2.328V30.5h-2.304v-7.056c0-1.232-.288-2.16-.864-2.784-.56-.624-1.368-.936-2.424-.936-.752 0-1.416.16-1.992.48a3.29 3.29 0 00-1.344 1.416c-.32.624-.48 1.4-.48 2.328V30.5h-2.304V17.78h2.208v3.384l-.36-.864a4.338 4.338 0 011.848-1.944c.832-.464 1.8-.696 2.904-.696 1.216 0 2.264.304 3.144.912.88.592 1.456 1.496 1.728 2.712l-.936-.384c.384-.976 1.056-1.76 2.016-2.352.96-.592 2.08-.888 3.36-.888zm9.447 12.84V17.78h2.304V30.5h-2.304zm1.152-15.168c-.448 0-.824-.144-1.128-.432a1.436 1.436 0 01-.432-1.056c0-.432.144-.792.432-1.08.304-.288.68-.432 1.128-.432.448 0 .816.144 1.104.432.304.272.456.616.456 1.032 0 .432-.144.8-.432 1.104-.288.288-.664.432-1.128.432zm9.919 15.312c-1.28 0-2.272-.344-2.976-1.032-.704-.688-1.056-1.672-1.056-2.952V14.996h2.304v11.568c0 .688.168 1.216.504 1.584.352.368.848.552 1.488.552.72 0 1.32-.2 1.8-.6l.72 1.656a3.342 3.342 0 01-1.272.672c-.48.144-.984.216-1.512.216zm-6.192-10.968V17.78h8.112v1.896h-8.112zm17.004 10.968c-1.36 0-2.56-.28-3.6-.84a6.159 6.159 0 01-2.4-2.304c-.56-.976-.84-2.096-.84-3.36 0-1.264.272-2.384.816-3.36a6 6 0 012.28-2.28c.976-.56 2.072-.84 3.288-.84 1.232 0 2.32.272 3.264.816a5.676 5.676 0 012.208 2.304c.544.976.816 2.12.816 3.432 0 .096-.008.208-.024.336 0 .128-.008.248-.024.36h-10.824v-1.656h9.624l-.936.576c.016-.816-.152-1.544-.504-2.184a3.743 3.743 0 00-1.464-1.488c-.608-.368-1.32-.552-2.136-.552-.8 0-1.512.184-2.136.552a3.705 3.705 0 00-1.464 1.512c-.352.64-.528 1.376-.528 2.208v.384c0 .848.192 1.608.576 2.28.4.656.952 1.168 1.656 1.536.704.368 1.512.552 2.424.552.752 0 1.432-.128 2.04-.384a4.47 4.47 0 001.632-1.152l1.272 1.488a5.554 5.554 0 01-2.16 1.536c-.848.352-1.8.528-2.856.528zm14.287 0c-1.232 0-2.336-.272-3.312-.816a6 6 0 01-2.28-2.28c-.56-.976-.84-2.112-.84-3.408 0-1.296.28-2.424.84-3.384a6 6 0 012.28-2.28c.976-.544 2.08-.816 3.312-.816 1.072 0 2.04.24 2.904.72.864.48 1.552 1.2 2.064 2.16.528.96.792 2.16.792 3.6s-.256 2.64-.768 3.6c-.496.96-1.176 1.688-2.04 2.184-.864.48-1.848.72-2.952.72zm.192-2.016c.8 0 1.52-.184 2.16-.552a3.896 3.896 0 001.536-1.56c.384-.688.576-1.48.576-2.376 0-.912-.192-1.696-.576-2.352a3.896 3.896 0 00-1.536-1.56c-.64-.368-1.36-.552-2.16-.552-.816 0-1.544.184-2.184.552a4.111 4.111 0 00-1.536 1.56c-.384.656-.576 1.44-.576 2.352 0 .896.192 1.688.576 2.376a4.111 4.111 0 001.536 1.56c.64.368 1.368.552 2.184.552zm4.344 1.872v-3.432l.144-2.952-.24-2.952v-8.472h2.304V30.5h-2.208z" fill="#424F65"/></svg>