<svg width="90" height="90" fill="none" xmlns="http://www.w3.org/2000/svg"><path d="M48 2.95l39.235 44.514L42.72 86.7 3.484 42.184 48 2.95z" fill="#F5F7F9"/><path opacity=".3" d="M47.62 2.02l40.36 45.794-45.792 40.362L1.826 42.382 47.619 2.02z" stroke="#002547" stroke-width=".3"/><circle opacity=".3" cx="47.5" cy="2.4" r="1.5" fill="#002547"/><circle opacity=".3" cx="42.3" cy="88.1" r="1" fill="#002547"/><circle opacity=".3" cx="1.5" cy="42.4" r="1.5" fill="#002547"/><circle opacity=".3" cx="88.5" cy="47.4" r="1.5" fill="#002547"/><path d="M57.996 55.31H43.981v2.335h14.015V55.31zm-4.958-15.103l-3.305-3.302-16.515 16.518 3.303 3.303 16.517-16.519zm-8.26-8.258l-6.607 6.607 3.305 3.305 6.604-6.61-3.302-3.302zm9.919 9.91l-6.607 6.608 3.303 3.303L58 45.163l-3.303-3.303z" fill="#002547"/></svg>