<svg width="90" height="90" fill="none" xmlns="http://www.w3.org/2000/svg"><path d="M48 2.95l39.235 44.514L42.72 86.7 3.484 42.184 48 2.95z" fill="#F5F7F9"/><path opacity=".3" d="M47.62 2.02l40.36 45.794-45.792 40.362L1.826 42.382 47.619 2.02z" stroke="#002547" stroke-width=".3"/><circle opacity=".3" cx="47.5" cy="2.4" r="1.5" fill="#002547"/><circle opacity=".3" cx="42.3" cy="88.1" r="1" fill="#002547"/><circle opacity=".3" cx="1.5" cy="42.4" r="1.5" fill="#002547"/><circle opacity=".3" cx="88.5" cy="47.4" r="1.5" fill="#002547"/><path d="M60 39.616c0 1.467-1.227 2.667-2.727 2.667-.246 0-.478-.027-.696-.094l-4.854 4.734c.068.213.095.453.095.693 0 1.467-1.227 2.667-2.727 2.667-1.5 0-2.727-1.2-2.727-2.667 0-.24.027-.48.095-.693l-3.477-3.4a2.459 2.459 0 01-.71.093 2.46 2.46 0 01-.708-.093l-6.205 6.08c.068.213.096.44.096.68 0 1.466-1.228 2.666-2.728 2.666-1.5 0-2.727-1.2-2.727-2.666 0-1.467 1.227-2.667 2.727-2.667.246 0 .478.027.696.093l6.218-6.066a2.305 2.305 0 01-.096-.694c0-1.466 1.228-2.666 2.728-2.666 1.5 0 2.727 1.2 2.727 2.666 0 .24-.027.48-.096.694l3.478 3.4a2.45 2.45 0 01.709-.094c.245 0 .49.027.709.094l4.84-4.747a2.219 2.219 0 01-.095-.68c0-1.467 1.228-2.667 2.728-2.667 1.5 0 2.727 1.2 2.727 2.667z" fill="#002547"/></svg>