<svg width="90" height="90" fill="none" xmlns="http://www.w3.org/2000/svg"><path d="M48 2.95l39.235 44.514L42.72 86.7 3.485 42.184 48 2.95z" fill="#F5F7F9"/><path opacity=".3" d="M47.62 2.02l40.36 45.794-45.792 40.362L1.826 42.382 47.619 2.02z" stroke="#002547" stroke-width=".3"/><circle opacity=".3" cx="47.5" cy="2.4" r="1.5" fill="#002547"/><circle opacity=".3" cx="42.3" cy="88.1" r="1" fill="#002547"/><circle opacity=".3" cx="1.5" cy="42.4" r="1.5" fill="#002547"/><circle opacity=".3" cx="88.5" cy="47.4" r="1.5" fill="#002547"/><path d="M45.5 39.616a4.832 4.832 0 00-4.834 4.833 4.832 4.832 0 004.834 4.834 4.832 4.832 0 004.833-4.834 4.832 4.832 0 00-4.833-4.833zm10.802 3.625a10.868 10.868 0 00-9.594-9.594v-2.49h-2.417v2.49a10.868 10.868 0 00-9.594 9.594h-2.489v2.417h2.49a10.868 10.868 0 009.593 9.594v2.489h2.417v-2.49a10.868 10.868 0 009.594-9.593h2.49V43.24h-2.49zM45.5 52.908a8.452 8.452 0 01-8.459-8.459 8.452 8.452 0 018.459-8.458 8.452 8.452 0 018.458 8.458 8.452 8.452 0 01-8.458 8.459z" fill="#002547"/></svg>