<svg width="90" height="90" fill="none" xmlns="http://www.w3.org/2000/svg"><path d="M48 2.95l39.235 44.514L42.72 86.7 3.484 42.184 48 2.95z" fill="#F5F7F9"/><path opacity=".3" d="M47.62 2.02l40.36 45.794-45.792 40.362L1.826 42.382 47.619 2.02z" stroke="#002547" stroke-width=".3"/><circle opacity=".3" cx="47.5" cy="2.4" r="1.5" fill="#002547"/><circle opacity=".3" cx="42.3" cy="88.1" r="1" fill="#002547"/><circle opacity=".3" cx="1.5" cy="42.4" r="1.5" fill="#002547"/><circle opacity=".3" cx="88.5" cy="47.4" r="1.5" fill="#002547"/><path d="M57.79 41.03a8.452 8.452 0 00-8.46-8.459 8.452 8.452 0 00-8.458 8.459 8.435 8.435 0 007.045 8.325v4.761H38.25v-3.625h1.209v-4.833c0-.665-.544-1.209-1.209-1.209h-3.625c-.664 0-1.208.544-1.208 1.209v4.833h1.208v6.042H53.96v-2.417h-3.625v-4.688c4.193-.496 7.455-4.06 7.455-8.398zm-21.353 2.21a1.81 1.81 0 001.812-1.813 1.81 1.81 0 00-1.812-1.812 1.81 1.81 0 00-1.813 1.813 1.81 1.81 0 001.813 1.812z" fill="#002547"/></svg>