<svg width="90" height="90" fill="none" xmlns="http://www.w3.org/2000/svg"><path d="M48 2.95l39.235 44.514L42.72 86.7 3.484 42.184 48 2.95z" fill="#F5F7F9"/><path opacity=".3" d="M47.62 2.02l40.36 45.794-45.792 40.362L1.826 42.382 47.619 2.02z" stroke="#002547" stroke-width=".3"/><circle opacity=".3" cx="47.5" cy="2.4" r="1.5" fill="#002547"/><circle opacity=".3" cx="42.3" cy="88.1" r="1" fill="#002547"/><circle opacity=".3" cx="1.5" cy="42.4" r="1.5" fill="#002547"/><circle opacity=".3" cx="88.5" cy="47.4" r="1.5" fill="#002547"/><path d="M57.584 38.311l-1.704-1.704-3.444 3.879c-2.489-2.803-5.933-4.495-9.824-4.495-3.492 0-6.694 1.402-9.195 3.625l1.716 1.716c2.054-1.8 4.652-2.924 7.48-2.924 3.31 0 6.15 1.522 8.18 3.915l-3.48 3.915-4.834-4.834-9.062 9.075 1.813 1.812 7.25-7.262 4.833 4.834 4.894-5.498a14.83 14.83 0 011.74 5.498h2.428c-.266-2.78-1.148-5.305-2.465-7.42l3.674-4.132z" fill="#002547"/></svg>