<svg width="90" height="90" fill="none" xmlns="http://www.w3.org/2000/svg"><path d="M48 2.95l39.235 44.514L42.72 86.7 3.485 42.184 48 2.95z" fill="#F5F7F9"/><path opacity=".3" d="M47.62 2.02l40.36 45.794-45.792 40.362L1.826 42.382 47.619 2.02z" stroke="#002547" stroke-width=".3"/><circle opacity=".3" cx="47.5" cy="2.4" r="1.5" fill="#002547"/><circle opacity=".3" cx="42.3" cy="88.1" r="1" fill="#002547"/><circle opacity=".3" cx="1.5" cy="42.4" r="1.5" fill="#002547"/><circle opacity=".3" cx="88.5" cy="47.4" r="1.5" fill="#002547"/><path d="M44.5 37.574a7.87 7.87 0 00-7.875 7.875h2.25a5.627 5.627 0 015.625-5.625 5.627 5.627 0 015.625 5.625h2.25a7.87 7.87 0 00-7.875-7.875zm1.125 10.452a2.815 2.815 0 001.688-2.577 2.814 2.814 0 00-5.626 0c0 1.148.698 2.138 1.688 2.577v3.712l-3.836 3.836 1.586 1.587 3.375-3.375 3.375 3.375 1.586-1.587-3.836-3.836v-3.712zM44.5 33.074c-6.829 0-12.375 5.547-12.375 12.375h2.25c0-5.59 4.534-10.125 10.125-10.125s10.125 4.534 10.125 10.125h2.25c0-6.828-5.546-12.375-12.375-12.375z" fill="#002547"/></svg>